<?xml version="1.0" encoding="iso-8859-1"?>
<!-- Uploaded to: SVG Repo, www.svgrepo.com, Generator: SVG Repo Mixer Tools -->
<!DOCTYPE svg PUBLIC "-//W3C//DTD SVG 1.1//EN" "http://www.w3.org/Graphics/SVG/1.1/DTD/svg11.dtd">
<svg fill="#000000" height="800px" width="800px" version="1.1" id="Capa_1" xmlns="http://www.w3.org/2000/svg" xmlns:xlink="http://www.w3.org/1999/xlink" 
	 viewBox="0 0 483.09 483.09" xml:space="preserve">
<path d="M477.593,228.263l-54.244-54.236c-3.521-3.52-5.499-8.299-5.499-13.273V84.021c0-10.373-8.409-18.781-18.781-18.781h-76.731
	c-4.974,0-9.754-1.978-13.274-5.499L254.827,5.497c-7.338-7.329-19.227-7.329-26.565,0l-54.236,54.244
	c-3.52,3.521-8.3,5.499-13.273,5.499H84.021c-10.373,0-18.781,8.408-18.781,18.781v76.732c0,4.974-1.978,9.754-5.499,13.273
	L5.496,228.263c-7.329,7.338-7.329,19.226,0,26.564l54.245,54.236c3.521,3.519,5.499,8.299,5.499,13.273v76.732
	c0,10.372,8.409,18.781,18.781,18.781h76.732c4.974,0,9.754,1.979,13.273,5.5l54.236,54.244c7.338,7.329,19.227,7.329,26.565,0
	l54.236-54.244c3.52-3.521,8.3-5.5,13.274-5.5h76.731c10.373,0,18.781-8.409,18.781-18.781v-76.732
	c0-4.974,1.978-9.754,5.499-13.273l54.244-54.236C484.922,247.489,484.922,235.601,477.593,228.263z M241.546,361.353
	c-66.173,0-119.809-53.635-119.809-119.808c0-66.173,53.636-119.809,119.809-119.809c66.172,0,119.808,53.635,119.808,119.809
	C361.353,307.718,307.718,361.353,241.546,361.353z"/>
</svg>